<svg width="50" height="73" viewBox="0 0 50 73" fill="none" xmlns="http://www.w3.org/2000/svg">
<path d="M15.6875 18.3828L12.6992 16.918C15.7852 10.7852 18.9688 6.54688 22.25 4.20312C25.5703 1.82031 29.2812 0.628906 33.3828 0.628906C38.3047 0.628906 42.2305 2.19141 45.1602 5.31641C48.0898 8.44141 49.5547 12.0938 49.5547 16.2734C49.5547 18.8516 49.0273 21.4688 47.9727 24.125C46.918 26.7812 45.1797 29.5547 42.7578 32.4453C41.1953 34.3594 36.8984 38.3242 29.8672 44.3398C20.4141 52.543 13.7734 59.1641 9.94531 64.2031C15.0625 63.9688 20.3359 63.8516 25.7656 63.8516C27.5234 63.8516 29.0469 63.8711 30.3359 63.9102C33.1875 64.0273 35.1406 63.7539 36.1953 63.0898C37.25 62.4258 38.9883 60.1992 41.4102 56.4102H45.4531C42.2891 60.7852 39.5352 66.1562 37.1914 72.5234C34.418 72.0156 31.4883 71.625 28.4023 71.3516C25.3164 71.1172 22.0742 71 18.6758 71C14.6523 71 8.73438 71.2539 0.921875 71.7617L2.09375 68.0703C5.64844 62.7969 10.9609 56.8398 18.0312 50.1992C25.0234 43.6367 29.5352 39.0469 31.5664 36.4297C34.4961 32.6406 36.625 29.0664 37.9531 25.707C38.9688 23.207 39.4766 20.7852 39.4766 18.4414C39.4766 14.9258 38.5195 12.1133 36.6055 10.0039C34.6914 7.89453 32.3281 6.83984 29.5156 6.83984C27.1719 6.83984 24.8672 7.67969 22.6016 9.35938C20.375 11.0391 18.0703 14.0469 15.6875 18.3828Z" fill="#FCF7BA"/>
</svg>
