{
	"asset":{
		"generator":"Khronos glTF Blender I/O v4.2.57",
		"version":"2.0"
	},
	"extensionsUsed":[
		"KHR_materials_transmission",
		"KHR_materials_specular",
		"KHR_materials_ior",
		"KHR_texture_transform"
	],
	"extensionsRequired":[
		"KHR_texture_transform"
	],
	"scene":0,
	"scenes":[
		{
			"name":"Scene",
			"nodes":[
				0
			]
		}
	],
	"nodes":[
		{
			"mesh":0,
			"name":"Eye"
		}
	],
	"materials":[
		{
			"doubleSided":true,
			"extensions":{
				"KHR_materials_specular":{
					"specularColorTexture":{
						"index":0,
						"texCoord":1
					}
				},
				"KHR_materials_ior":{
					"ior":1.4500000476837158
				}
			},
			"name":"Iris",
			"normalTexture":{
				"index":1,
				"texCoord":1
			},
			"pbrMetallicRoughness":{
				"baseColorTexture":{
					"index":2,
					"texCoord":1
				},
				"metallicFactor":0,
				"roughnessFactor":0.5
			}
		},
		{
			"doubleSided":true,
			"extensions":{
				"KHR_materials_transmission":{
					"transmissionFactor":1
				},
				"KHR_materials_specular":{
					"specularColorFactor":[
						0.8999999761581421,
						0.8999999761581421,
						0.8999999761581421
					]
				},
				"KHR_materials_ior":{
					"ior":1.350000023841858
				}
			},
			"name":"Cornea",
			"pbrMetallicRoughness":{
				"baseColorFactor":[
					0.800000011920929,
					0.800000011920929,
					0.800000011920929,
					1
				],
				"metallicFactor":0,
				"roughnessFactor":0.10000000149011612
			}
		},
		{
			"doubleSided":true,
			"extensions":{
				"KHR_materials_specular":{
					"specularColorTexture":{
						"extensions":{
							"KHR_texture_transform":{
								"offset":[
									0,
									1.9500000178813934
								],
								"scale":[
									1,
									-0.800000011920929
								]
							}
						},
						"index":3,
						"texCoord":1
					}
				},
				"KHR_materials_ior":{
					"ior":1.4500000476837158
				}
			},
			"name":"Sclera",
			"normalTexture":{
				"extensions":{
					"KHR_texture_transform":{
						"offset":[
							0,
							1.9500000178813934
						],
						"scale":[
							1,
							-0.800000011920929
						]
					}
				},
				"index":4,
				"texCoord":1
			},
			"pbrMetallicRoughness":{
				"baseColorTexture":{
					"extensions":{
						"KHR_texture_transform":{
							"offset":[
								0,
								1.9500000178813934
							],
							"scale":[
								1,
								-0.800000011920929
							]
						}
					},
					"index":5,
					"texCoord":1
				},
				"metallicFactor":0,
				"roughnessFactor":0.19090908765792847
			}
		}
	],
	"meshes":[
		{
			"name":"Sphere",
			"primitives":[
				{
					"attributes":{
						"POSITION":0,
						"NORMAL":1,
						"TEXCOORD_0":2,
						"TEXCOORD_1":3
					},
					"indices":4,
					"material":0
				},
				{
					"attributes":{
						"POSITION":5,
						"NORMAL":6,
						"TEXCOORD_0":7,
						"TEXCOORD_1":8
					},
					"indices":9,
					"material":1
				},
				{
					"attributes":{
						"POSITION":10,
						"NORMAL":11,
						"TEXCOORD_0":12,
						"TEXCOORD_1":13
					},
					"indices":14,
					"material":2
				}
			]
		}
	],
	"textures":[
		{
			"sampler":0,
			"source":0
		},
		{
			"sampler":0,
			"source":1
		},
		{
			"sampler":0,
			"source":0
		},
		{
			"sampler":0,
			"source":2
		},
		{
			"sampler":0,
			"source":3
		},
		{
			"sampler":0,
			"source":2
		}
	],
	"images":[
		{
			"mimeType":"image/png",
			"name":"IrisClr",
			"uri":"IrisClr.png"
		},
		{
			"mimeType":"image/png",
			"name":"IrisBmp",
			"uri":"IrisBmp.png"
		},
		{
			"mimeType":"image/jpeg",
			"name":"ScleraClr",
			"uri":"ScleraClr.jpg"
		},
		{
			"mimeType":"image/jpeg",
			"name":"ScleraBmp",
			"uri":"ScleraBmp.jpg"
		}
	],
	"accessors":[
		{
			"bufferView":0,
			"componentType":5126,
			"count":64,
			"max":[
				0.0001951158046722412,
				0.00019510090351104736,
				-1
			],
			"min":[
				-0.00019505620002746582,
				-0.00019508600234985352,
				-1
			],
			"type":"VEC3"
		},
		{
			"bufferView":1,
			"componentType":5126,
			"count":64,
			"type":"VEC3"
		},
		{
			"bufferView":2,
			"componentType":5126,
			"count":64,
			"type":"VEC2"
		},
		{
			"bufferView":3,
			"componentType":5126,
			"count":64,
			"type":"VEC2"
		},
		{
			"bufferView":4,
			"componentType":5123,
			"count":192,
			"type":"SCALAR"
		},
		{
			"bufferView":5,
			"componentType":5126,
			"count":729,
			"max":[
				1,
				1,
				0.9999999403953552
			],
			"min":[
				-0.9999999403953552,
				-1,
				-0.9999999403953552
			],
			"type":"VEC3"
		},
		{
			"bufferView":6,
			"componentType":5126,
			"count":729,
			"type":"VEC3"
		},
		{
			"bufferView":7,
			"componentType":5126,
			"count":729,
			"type":"VEC2"
		},
		{
			"bufferView":8,
			"componentType":5126,
			"count":729,
			"type":"VEC2"
		},
		{
			"bufferView":9,
			"componentType":5123,
			"count":3840,
			"type":"SCALAR"
		},
		{
			"bufferView":10,
			"componentType":5126,
			"count":593,
			"max":[
				0.9999996423721313,
				0.9999988079071045,
				1
			],
			"min":[
				-0.9999989867210388,
				-0.9999993443489075,
				-1
			],
			"type":"VEC3"
		},
		{
			"bufferView":11,
			"componentType":5126,
			"count":593,
			"type":"VEC3"
		},
		{
			"bufferView":12,
			"componentType":5126,
			"count":593,
			"type":"VEC2"
		},
		{
			"bufferView":13,
			"componentType":5126,
			"count":593,
			"type":"VEC2"
		},
		{
			"bufferView":14,
			"componentType":5123,
			"count":2976,
			"type":"SCALAR"
		}
	],
	"bufferViews":[
		{
			"buffer":0,
			"byteLength":768,
			"byteOffset":0,
			"target":34962
		},
		{
			"buffer":0,
			"byteLength":768,
			"byteOffset":768,
			"target":34962
		},
		{
			"buffer":0,
			"byteLength":512,
			"byteOffset":1536,
			"target":34962
		},
		{
			"buffer":0,
			"byteLength":512,
			"byteOffset":2048,
			"target":34962
		},
		{
			"buffer":0,
			"byteLength":384,
			"byteOffset":2560,
			"target":34963
		},
		{
			"buffer":0,
			"byteLength":8748,
			"byteOffset":2944,
			"target":34962
		},
		{
			"buffer":0,
			"byteLength":8748,
			"byteOffset":11692,
			"target":34962
		},
		{
			"buffer":0,
			"byteLength":5832,
			"byteOffset":20440,
			"target":34962
		},
		{
			"buffer":0,
			"byteLength":5832,
			"byteOffset":26272,
			"target":34962
		},
		{
			"buffer":0,
			"byteLength":7680,
			"byteOffset":32104,
			"target":34963
		},
		{
			"buffer":0,
			"byteLength":7116,
			"byteOffset":39784,
			"target":34962
		},
		{
			"buffer":0,
			"byteLength":7116,
			"byteOffset":46900,
			"target":34962
		},
		{
			"buffer":0,
			"byteLength":4744,
			"byteOffset":54016,
			"target":34962
		},
		{
			"buffer":0,
			"byteLength":4744,
			"byteOffset":58760,
			"target":34962
		},
		{
			"buffer":0,
			"byteLength":5952,
			"byteOffset":63504,
			"target":34963
		}
	],
	"samplers":[
		{
			"magFilter":9729,
			"minFilter":9987
		}
	],
	"buffers":[
		{
			"byteLength":69456,
			"uri":"Eye.bin"
		}
	]
}
